<?xml version="1.0" standalone="no"?>
<!DOCTYPE svg PUBLIC "-//W3C//DTD SVG 20010904//EN"
 "http://www.w3.org/TR/2001/REC-SVG-20010904/DTD/svg10.dtd">
<svg version="1.0" xmlns="http://www.w3.org/2000/svg"
 width="981.000000pt" height="981.000000pt" viewBox="0 0 981.000000 981.000000"
 preserveAspectRatio="xMidYMid meet">
<metadata>
Created by potrace 1.14, written by Peter Selinger 2001-2017
</metadata>
<g transform="translate(0.000000,981.000000) scale(0.100000,-0.100000)"
fill="#000000" stroke="none">
<path d="M615 9515 c-294 -56 -523 -268 -595 -551 -20 -76 -20 -131 -20 -4054
0 -3893 0 -3978 19 -4052 67 -262 274 -471 541 -545 62 -17 213 -18 3375 -18
3172 0 3313 1 3375 18 253 71 438 248 532 507 l23 65 3 923 3 922 -205 0 -205
0 -3 -872 -3 -873 -23 -56 c-32 -80 -90 -142 -170 -181 l-67 -33 -3260 0
-3260 0 -56 26 c-109 52 -177 138 -198 253 -16 84 -16 7748 0 7832 21 115 89
201 198 253 l56 26 3260 0 3260 0 67 -33 c108 -53 188 -167 188 -267 l0 -35
210 0 210 0 0 53 c0 30 -9 89 -20 133 -77 302 -320 521 -624 563 -124 18
-6519 13 -6611 -4z"/>
<path d="M8591 8424 c-83 -22 -169 -73 -238 -139 -39 -38 -128 -156 -244 -324
-184 -267 -2645 -4149 -2681 -4230 -23 -49 -308 -1522 -308 -1586 1 -118 118
-219 233 -201 22 4 53 14 71 23 96 49 1267 812 1307 852 29 28 558 815 1352
2011 718 1081 1385 2084 1483 2230 97 146 188 288 200 315 65 143 43 335 -61
521 -43 76 -87 116 -252 225 -249 166 -451 274 -568 304 -74 19 -222 18 -294
-1z m316 -464 c159 -82 428 -261 446 -297 8 -15 20 -45 26 -65 l12 -38 -136
-205 c-75 -113 -140 -207 -144 -209 -5 -3 -679 458 -702 481 -6 6 34 73 111
186 101 145 128 178 158 191 67 28 103 21 229 -44z m-363 -940 c179 -124 325
-228 326 -232 0 -8 -2316 -3498 -2333 -3515 -9 -8 -88 41 -324 205 -172 120
-310 222 -309 227 3 8 2176 3450 2243 3552 19 29 -27 56 397 -237z m-2477
-3953 c73 -51 132 -95 130 -99 -4 -13 -562 -368 -565 -359 -3 8 114 632 123
659 3 9 33 -7 92 -48 49 -34 148 -103 220 -153z"/>
<path d="M1055 7633 c-73 -38 -114 -105 -115 -186 0 -84 40 -151 112 -188 36
-19 101 -19 2650 -19 l2614 0 44 23 c147 74 146 292 -1 367 -38 20 -77 20
-2656 20 -2367 -1 -2621 -2 -2648 -17z"/>
<path d="M1081 5615 c-163 -51 -190 -285 -44 -376 l38 -24 1880 -3 c1316 -2
1891 0 1917 8 84 24 138 101 138 198 0 80 -31 137 -95 177 l-48 30 -1871 2
c-1563 1 -1878 0 -1915 -12z"/>
<path d="M1081 3575 c-163 -51 -190 -285 -44 -376 l38 -24 1155 -3 c1290 -3
1206 -7 1273 68 89 98 63 255 -53 320 l-45 25 -1140 2 c-944 2 -1148 -1 -1184
-12z"/>
</g>
</svg>
